<svg width="20" height="20" viewBox="0 0 20 20" fill="none" xmlns="http://www.w3.org/2000/svg">
<path d="M0 6.66666L6.66667 -1.00136e-05H0.999999C0.447714 -1.00136e-05 0 0.447705 0 0.99999V6.66666Z" fill="#6259C8"/>
<path d="M13.3333 13.3333L20 6.66668H13.3333V13.3333Z" fill="#7A71DE"/>
<path d="M6.66669 0L2.0504e-05 6.66667H6.66669V0Z" fill="#968CFF"/>
<path d="M0 6.66663V13.3333H6.66661L6.66669 6.66671L0 6.66663Z" fill="#968CFF"/>
<path d="M0 19.5172C0 19.6953 0.215428 19.7846 0.341421 19.6586L6.66667 13.3333H0V19.5172Z" fill="#968CFF"/>
<path d="M6.66669 20L13.3334 13.3333H7.66669C7.1144 13.3333 6.66669 13.781 6.66669 14.3333V20Z" fill="#6259C8"/>
<path d="M6.66663 -3.05176e-05L13.3333 6.66664L20 6.66668L13.6262 0.292901C13.4386 0.105366 13.1843 9.10774e-06 12.9191 7.49532e-06L6.66663 -3.05176e-05Z" fill="#7A71DE"/>
<path d="M6.66669 0L13.3334 6.66667H6.66669V0Z" fill="#6259C8"/>
<path d="M20 13.3333L13.6262 19.7071C13.4386 19.8947 13.1843 20 12.9191 20L6.66663 20.0001L13.3333 13.3334L20 13.3333Z" fill="#968CFF"/>
<path d="M20 6.66666L13.3333 13.3333H20V6.66666Z" fill="#968CFF"/>
</svg>
